<svg width="100" height="74" viewBox="0 0 119 86" fill="none" xmlns="http://www.w3.org/2000/svg">
<rect width="81" height="86" rx="3" fill="white"/>
<path d="M79.895 47.864C79.895 51.896 79.4577 55.4053 78.583 58.392C77.7297 61.3573 76.535 63.8107 74.999 65.752C73.4843 67.6933 71.6817 69.144 69.591 70.104C67.5217 71.0427 65.2817 71.512 62.871 71.512C60.4603 71.512 58.2203 71.0427 56.151 70.104C54.103 69.144 52.3217 67.6933 50.807 65.752C49.2923 63.8107 48.1083 61.3573 47.255 58.392C46.4017 55.4053 45.975 51.896 45.975 47.864C45.975 43.8107 46.4017 40.3013 47.255 37.336C48.1083 34.3707 49.2923 31.9173 50.807 29.976C52.3217 28.0347 54.103 26.5947 56.151 25.656C58.2203 24.696 60.4603 24.216 62.871 24.216C65.2817 24.216 67.5217 24.696 69.591 25.656C71.6817 26.5947 73.4843 28.0347 74.999 29.976C76.535 31.9173 77.7297 34.3707 78.583 37.336C79.4577 40.3013 79.895 43.8107 79.895 47.864ZM71.735 47.864C71.735 44.5147 71.4897 41.7413 70.999 39.544C70.5083 37.3467 69.847 35.5973 69.015 34.296C68.2043 32.9947 67.2657 32.088 66.199 31.576C65.1323 31.0427 64.023 30.776 62.871 30.776C61.7403 30.776 60.6417 31.0427 59.575 31.576C58.5297 32.088 57.6017 32.9947 56.791 34.296C55.9803 35.5973 55.3297 37.3467 54.839 39.544C54.3697 41.7413 54.135 44.5147 54.135 47.864C54.135 51.2133 54.3697 53.9867 54.839 56.184C55.3297 58.3813 55.9803 60.1307 56.791 61.432C57.6017 62.7333 58.5297 63.6507 59.575 64.184C60.6417 64.696 61.7403 64.952 62.871 64.952C64.023 64.952 65.1323 64.696 66.199 64.184C67.2657 63.6507 68.2043 62.7333 69.015 61.432C69.847 60.1307 70.5083 58.3813 70.999 56.184C71.4897 53.9867 71.735 51.2133 71.735 47.864ZM114.62 65.08V71H89.02V65.08H98.396V38.104C98.396 37.0373 98.428 35.9387 98.492 34.808L91.836 40.376C91.452 40.6747 91.068 40.8667 90.684 40.952C90.3213 41.016 89.9693 41.016 89.628 40.952C89.308 40.888 89.02 40.7813 88.764 40.632C88.508 40.4613 88.316 40.28 88.188 40.088L85.692 36.664L99.804 24.664H106.3V65.08H114.62Z" fill="black"/>
</svg>
