<svg width="100" height="74" viewBox="0 0 119 86" fill="none" xmlns="http://www.w3.org/2000/svg">
<rect width="81" height="86" rx="3" fill="white"/>
<path d="M79.895 47.864C79.895 51.896 79.4577 55.4053 78.583 58.392C77.7297 61.3573 76.535 63.8107 74.999 65.752C73.4843 67.6933 71.6817 69.144 69.591 70.104C67.5217 71.0427 65.2817 71.512 62.871 71.512C60.4603 71.512 58.2203 71.0427 56.151 70.104C54.103 69.144 52.3217 67.6933 50.807 65.752C49.2923 63.8107 48.1083 61.3573 47.255 58.392C46.4017 55.4053 45.975 51.896 45.975 47.864C45.975 43.8107 46.4017 40.3013 47.255 37.336C48.1083 34.3707 49.2923 31.9173 50.807 29.976C52.3217 28.0347 54.103 26.5947 56.151 25.656C58.2203 24.696 60.4603 24.216 62.871 24.216C65.2817 24.216 67.5217 24.696 69.591 25.656C71.6817 26.5947 73.4843 28.0347 74.999 29.976C76.535 31.9173 77.7297 34.3707 78.583 37.336C79.4577 40.3013 79.895 43.8107 79.895 47.864ZM71.735 47.864C71.735 44.5147 71.4897 41.7413 70.999 39.544C70.5083 37.3467 69.847 35.5973 69.015 34.296C68.2043 32.9947 67.2657 32.088 66.199 31.576C65.1323 31.0427 64.023 30.776 62.871 30.776C61.7403 30.776 60.6417 31.0427 59.575 31.576C58.5297 32.088 57.6017 32.9947 56.791 34.296C55.9803 35.5973 55.3297 37.3467 54.839 39.544C54.3697 41.7413 54.135 44.5147 54.135 47.864C54.135 51.2133 54.3697 53.9867 54.839 56.184C55.3297 58.3813 55.9803 60.1307 56.791 61.432C57.6017 62.7333 58.5297 63.6507 59.575 64.184C60.6417 64.696 61.7403 64.952 62.871 64.952C64.023 64.952 65.1323 64.696 66.199 64.184C67.2657 63.6507 68.2043 62.7333 69.015 61.432C69.847 60.1307 70.5083 58.3813 70.999 56.184C71.4897 53.9867 71.735 51.2133 71.735 47.864ZM112.892 63.64C113.745 63.64 114.417 63.8853 114.908 64.376C115.42 64.8453 115.676 65.4747 115.676 66.264V71H83.932V68.376C83.932 67.8427 84.0387 67.288 84.252 66.712C84.4867 66.1147 84.8493 65.5813 85.34 65.112L99.388 51.032C100.561 49.8373 101.607 48.696 102.524 47.608C103.463 46.52 104.241 45.4427 104.86 44.376C105.479 43.3093 105.948 42.232 106.268 41.144C106.609 40.0347 106.78 38.872 106.78 37.656C106.78 36.5467 106.62 35.576 106.3 34.744C105.98 33.8907 105.521 33.176 104.924 32.6C104.348 32.024 103.644 31.5973 102.812 31.32C102.001 31.0213 101.084 30.872 100.06 30.872C99.1213 30.872 98.2467 31.0107 97.436 31.288C96.6467 31.544 95.9427 31.9173 95.324 32.408C94.7053 32.8773 94.1827 33.432 93.756 34.072C93.3293 34.712 93.0093 35.416 92.796 36.184C92.4333 37.1653 91.964 37.816 91.388 38.136C90.812 38.456 89.98 38.5307 88.892 38.36L84.732 37.624C85.052 35.4053 85.6707 33.464 86.588 31.8C87.5053 30.1147 88.6467 28.7173 90.012 27.608C91.3987 26.4773 92.9773 25.6347 94.748 25.08C96.54 24.504 98.46 24.216 100.508 24.216C102.641 24.216 104.593 24.536 106.364 25.176C108.135 25.7947 109.649 26.68 110.908 27.832C112.167 28.984 113.148 30.3707 113.852 31.992C114.556 33.6133 114.908 35.416 114.908 37.4C114.908 39.1067 114.652 40.6853 114.14 42.136C113.649 43.5867 112.977 44.9733 112.124 46.296C111.292 47.6187 110.311 48.8987 109.18 50.136C108.049 51.3733 106.865 52.632 105.628 53.912L95.196 64.568C96.1987 64.2693 97.1907 64.0453 98.172 63.896C99.1747 63.7253 100.124 63.64 101.02 63.64H112.892Z" fill="black"/>
</svg>
