<svg width="100" height="74" viewBox="0 0 119 86" fill="none" xmlns="http://www.w3.org/2000/svg">
<rect width="81" height="86" rx="3" fill="white"/>
<path d="M79.895 47.864C79.895 51.896 79.4577 55.4053 78.583 58.392C77.7297 61.3573 76.535 63.8107 74.999 65.752C73.4843 67.6933 71.6817 69.144 69.591 70.104C67.5217 71.0427 65.2817 71.512 62.871 71.512C60.4603 71.512 58.2203 71.0427 56.151 70.104C54.103 69.144 52.3217 67.6933 50.807 65.752C49.2923 63.8107 48.1083 61.3573 47.255 58.392C46.4017 55.4053 45.975 51.896 45.975 47.864C45.975 43.8107 46.4017 40.3013 47.255 37.336C48.1083 34.3707 49.2923 31.9173 50.807 29.976C52.3217 28.0347 54.103 26.5947 56.151 25.656C58.2203 24.696 60.4603 24.216 62.871 24.216C65.2817 24.216 67.5217 24.696 69.591 25.656C71.6817 26.5947 73.4843 28.0347 74.999 29.976C76.535 31.9173 77.7297 34.3707 78.583 37.336C79.4577 40.3013 79.895 43.8107 79.895 47.864ZM71.735 47.864C71.735 44.5147 71.4897 41.7413 70.999 39.544C70.5083 37.3467 69.847 35.5973 69.015 34.296C68.2043 32.9947 67.2657 32.088 66.199 31.576C65.1323 31.0427 64.023 30.776 62.871 30.776C61.7403 30.776 60.6417 31.0427 59.575 31.576C58.5297 32.088 57.6017 32.9947 56.791 34.296C55.9803 35.5973 55.3297 37.3467 54.839 39.544C54.3697 41.7413 54.135 44.5147 54.135 47.864C54.135 51.2133 54.3697 53.9867 54.839 56.184C55.3297 58.3813 55.9803 60.1307 56.791 61.432C57.6017 62.7333 58.5297 63.6507 59.575 64.184C60.6417 64.696 61.7403 64.952 62.871 64.952C64.023 64.952 65.1323 64.696 66.199 64.184C67.2657 63.6507 68.2043 62.7333 69.015 61.432C69.847 60.1307 70.5083 58.3813 70.999 56.184C71.4897 53.9867 71.735 51.2133 71.735 47.864ZM84.956 37.624C85.276 35.4053 85.8947 33.464 86.812 31.8C87.7293 30.1147 88.8707 28.7173 90.236 27.608C91.6227 26.4773 93.2013 25.6347 94.972 25.08C96.764 24.504 98.684 24.216 100.732 24.216C102.865 24.216 104.785 24.5253 106.492 25.144C108.22 25.7413 109.692 26.584 110.908 27.672C112.124 28.7387 113.052 29.9973 113.692 31.448C114.353 32.8987 114.684 34.4667 114.684 36.152C114.684 37.624 114.513 38.9253 114.172 40.056C113.852 41.1653 113.383 42.136 112.764 42.968C112.145 43.8 111.377 44.504 110.46 45.08C109.543 45.656 108.508 46.136 107.356 46.52C110.129 47.3947 112.199 48.728 113.564 50.52C114.929 52.312 115.612 54.5627 115.612 57.272C115.612 59.576 115.185 61.6133 114.332 63.384C113.479 65.1547 112.327 66.648 110.876 67.864C109.425 69.0587 107.74 69.9653 105.82 70.584C103.921 71.2027 101.905 71.512 99.772 71.512C97.4467 71.512 95.42 71.2453 93.692 70.712C91.964 70.1787 90.46 69.3893 89.18 68.344C87.9 67.2987 86.812 66.0187 85.916 64.504C85.02 62.9893 84.252 61.24 83.612 59.256L87.1 57.816C88.0173 57.432 88.8707 57.336 89.66 57.528C90.4707 57.6987 91.0573 58.1253 91.42 58.808C91.804 59.5547 92.22 60.2907 92.668 61.016C93.1373 61.7413 93.692 62.392 94.332 62.968C94.972 63.5227 95.7187 63.9813 96.572 64.344C97.4467 64.6853 98.4813 64.856 99.676 64.856C101.02 64.856 102.193 64.6427 103.196 64.216C104.199 63.768 105.031 63.192 105.692 62.488C106.375 61.784 106.876 61.0053 107.196 60.152C107.537 59.2773 107.708 58.4027 107.708 57.528C107.708 56.4187 107.591 55.416 107.356 54.52C107.121 53.6027 106.631 52.824 105.884 52.184C105.137 51.544 104.06 51.0427 102.652 50.68C101.265 50.3173 99.3987 50.136 97.052 50.136V44.504C98.9933 44.4827 100.604 44.3013 101.884 43.96C103.164 43.6187 104.177 43.1493 104.924 42.552C105.692 41.9333 106.225 41.1973 106.524 40.344C106.823 39.4907 106.972 38.552 106.972 37.528C106.972 35.352 106.364 33.6987 105.148 32.568C103.932 31.4373 102.311 30.872 100.284 30.872C99.3453 30.872 98.4813 31.0107 97.692 31.288C96.9027 31.544 96.188 31.9173 95.548 32.408C94.9293 32.8773 94.4067 33.432 93.98 34.072C93.5533 34.712 93.2333 35.416 93.02 36.184C92.6573 37.1653 92.1773 37.816 91.58 38.136C91.004 38.456 90.1827 38.5307 89.116 38.36L84.956 37.624Z" fill="black"/>
</svg>
