<svg width="100" height="74" viewBox="0 0 119 86" fill="none" xmlns="http://www.w3.org/2000/svg">
<rect width="81" height="86" rx="3" fill="white"/>
<path d="M79.895 48.864C79.895 52.896 79.4577 56.4053 78.583 59.392C77.7297 62.3573 76.535 64.8107 74.999 66.752C73.4843 68.6933 71.6817 70.144 69.591 71.104C67.5217 72.0427 65.2817 72.512 62.871 72.512C60.4603 72.512 58.2203 72.0427 56.151 71.104C54.103 70.144 52.3217 68.6933 50.807 66.752C49.2923 64.8107 48.1083 62.3573 47.255 59.392C46.4017 56.4053 45.975 52.896 45.975 48.864C45.975 44.8107 46.4017 41.3013 47.255 38.336C48.1083 35.3707 49.2923 32.9173 50.807 30.976C52.3217 29.0347 54.103 27.5947 56.151 26.656C58.2203 25.696 60.4603 25.216 62.871 25.216C65.2817 25.216 67.5217 25.696 69.591 26.656C71.6817 27.5947 73.4843 29.0347 74.999 30.976C76.535 32.9173 77.7297 35.3707 78.583 38.336C79.4577 41.3013 79.895 44.8107 79.895 48.864ZM71.735 48.864C71.735 45.5147 71.4897 42.7413 70.999 40.544C70.5083 38.3467 69.847 36.5973 69.015 35.296C68.2043 33.9947 67.2657 33.088 66.199 32.576C65.1323 32.0427 64.023 31.776 62.871 31.776C61.7403 31.776 60.6417 32.0427 59.575 32.576C58.5297 33.088 57.6017 33.9947 56.791 35.296C55.9803 36.5973 55.3297 38.3467 54.839 40.544C54.3697 42.7413 54.135 45.5147 54.135 48.864C54.135 52.2133 54.3697 54.9867 54.839 57.184C55.3297 59.3813 55.9803 61.1307 56.791 62.432C57.6017 63.7333 58.5297 64.6507 59.575 65.184C60.6417 65.696 61.7403 65.952 62.871 65.952C64.023 65.952 65.1323 65.696 66.199 65.184C67.2657 64.6507 68.2043 63.7333 69.015 62.432C69.847 61.1307 70.5083 59.3813 70.999 57.184C71.4897 54.9867 71.735 52.2133 71.735 48.864ZM104.284 54.56V39.424C104.284 37.9947 104.38 36.416 104.572 34.688L90.204 54.56H104.284ZM116.988 54.56V59.136C116.988 59.5627 116.849 59.936 116.572 60.256C116.295 60.5547 115.9 60.704 115.388 60.704H111.164V72H104.284V60.704H84.764C84.2307 60.704 83.7613 60.544 83.356 60.224C82.9507 59.8827 82.6947 59.4667 82.588 58.976L81.756 54.976L103.676 25.696H111.164V54.56H116.988Z" fill="black"/>
</svg>
