<svg width="100" height="74" viewBox="0 0 119 86" fill="none" xmlns="http://www.w3.org/2000/svg">
<rect width="81" height="86" rx="3" fill="white"/>
<path d="M79.895 47.864C79.895 51.896 79.4577 55.4053 78.583 58.392C77.7297 61.3573 76.535 63.8107 74.999 65.752C73.4843 67.6933 71.6817 69.144 69.591 70.104C67.5217 71.0427 65.2817 71.512 62.871 71.512C60.4603 71.512 58.2203 71.0427 56.151 70.104C54.103 69.144 52.3217 67.6933 50.807 65.752C49.2923 63.8107 48.1083 61.3573 47.255 58.392C46.4017 55.4053 45.975 51.896 45.975 47.864C45.975 43.8107 46.4017 40.3013 47.255 37.336C48.1083 34.3707 49.2923 31.9173 50.807 29.976C52.3217 28.0347 54.103 26.5947 56.151 25.656C58.2203 24.696 60.4603 24.216 62.871 24.216C65.2817 24.216 67.5217 24.696 69.591 25.656C71.6817 26.5947 73.4843 28.0347 74.999 29.976C76.535 31.9173 77.7297 34.3707 78.583 37.336C79.4577 40.3013 79.895 43.8107 79.895 47.864ZM71.735 47.864C71.735 44.5147 71.4897 41.7413 70.999 39.544C70.5083 37.3467 69.847 35.5973 69.015 34.296C68.2043 32.9947 67.2657 32.088 66.199 31.576C65.1323 31.0427 64.023 30.776 62.871 30.776C61.7403 30.776 60.6417 31.0427 59.575 31.576C58.5297 32.088 57.6017 32.9947 56.791 34.296C55.9803 35.5973 55.3297 37.3467 54.839 39.544C54.3697 41.7413 54.135 44.5147 54.135 47.864C54.135 51.2133 54.3697 53.9867 54.839 56.184C55.3297 58.3813 55.9803 60.1307 56.791 61.432C57.6017 62.7333 58.5297 63.6507 59.575 64.184C60.6417 64.696 61.7403 64.952 62.871 64.952C64.023 64.952 65.1323 64.696 66.199 64.184C67.2657 63.6507 68.2043 62.7333 69.015 61.432C69.847 60.1307 70.5083 58.3813 70.999 56.184C71.4897 53.9867 71.735 51.2133 71.735 47.864ZM94.492 41.528C95.516 41.3147 96.4973 41.1653 97.436 41.08C98.3747 40.9733 99.2813 40.92 100.156 40.92C102.588 40.92 104.732 41.2827 106.588 42.008C108.444 42.7333 110.001 43.736 111.26 45.016C112.519 46.296 113.468 47.8 114.108 49.528C114.748 51.2347 115.068 53.08 115.068 55.064C115.068 57.5173 114.631 59.7573 113.756 61.784C112.903 63.8107 111.708 65.5493 110.172 67C108.636 68.4293 106.812 69.5387 104.7 70.328C102.609 71.1173 100.327 71.512 97.852 71.512C96.4013 71.512 95.0253 71.3627 93.724 71.064C92.4227 70.7653 91.196 70.3707 90.044 69.88C88.9133 69.368 87.8573 68.792 86.876 68.152C85.916 67.4907 85.052 66.7973 84.284 66.072L86.716 62.712C87.228 61.9867 87.9 61.624 88.732 61.624C89.2653 61.624 89.8093 61.7947 90.364 62.136C90.9187 62.4773 91.548 62.8507 92.252 63.256C92.9773 63.6613 93.82 64.0347 94.78 64.376C95.7613 64.7173 96.9347 64.888 98.3 64.888C99.7507 64.888 101.031 64.6533 102.14 64.184C103.249 63.7147 104.167 63.064 104.892 62.232C105.639 61.3787 106.193 60.376 106.556 59.224C106.94 58.0507 107.132 56.7813 107.132 55.416C107.132 52.8987 106.396 50.936 104.924 49.528C103.473 48.0987 101.319 47.384 98.46 47.384C96.2627 47.384 94.012 47.7893 91.708 48.6L86.78 47.192L90.62 24.728H113.468V28.088C113.468 29.2187 113.116 30.136 112.412 30.84C111.708 31.544 110.513 31.896 108.828 31.896H96.124L94.492 41.528Z" fill="black"/>
</svg>
