<svg width="51" height="51" viewBox="0 0 61 61" fill="none" xmlns="http://www.w3.org/2000/svg">
<rect width="61" height="61" rx="2" fill="#E4EDF2"/>
<path d="M30.8676 39.4654C31.1386 39.5564 31.3546 39.3064 31.4536 39.1634C31.7326 38.7584 31.8756 37.8544 31.4576 36.9364C31.0346 36.0094 30.7556 34.8644 29.7676 33.1154C29.6526 32.9114 29.2736 30.3694 28.5256 28.7614C28.3236 28.3264 27.0306 28.0774 26.5166 28.2324C26.0036 28.3864 26.5216 29.2124 26.5536 29.3664C26.8976 31.0174 27.8586 33.4434 28.0036 33.7704C28.8036 35.5764 29.9686 36.1594 30.0746 37.4764C30.1296 38.1664 30.2796 38.7624 30.6746 38.7044C30.7666 39.0564 30.7676 39.4324 30.8676 39.4654ZM16.0446 39.6694C15.7876 39.7954 15.5406 39.5754 15.4246 39.4474C15.0946 39.0824 14.8336 38.2054 15.1286 37.2394C15.4256 36.2644 15.5526 35.0934 16.3026 33.2294C16.3896 33.0124 16.4316 30.4424 16.9626 28.7504C17.1056 28.2934 18.3546 27.8754 18.8846 27.9614C19.4136 28.0474 19.0086 28.9334 18.9966 29.0904C18.8726 30.7724 18.2386 33.3034 18.1376 33.6464C17.5816 35.5414 16.5036 36.2734 16.5716 37.5924C16.6076 38.2844 16.5376 38.8944 16.1386 38.8884C16.0906 39.2514 16.1386 39.6234 16.0446 39.6694Z" fill="#F7DECE"/>
<path d="M19.2015 42.2055C18.7015 39.4715 18.9385 35.7255 18.9385 35.7255H26.5825C26.5825 35.7255 26.8205 39.4715 26.3205 42.2055C26.2575 42.5495 26.1325 45.5495 26.4295 47.7055C26.4955 48.1845 23.5435 48.6425 23.5855 47.5805C23.6635 45.6115 23.3215 44.0675 23.2575 43.0805C23.2225 42.5335 23.0075 41.2055 22.9135 39.8725C22.9025 39.8545 22.6185 39.8545 22.6075 39.8725C22.5135 41.2055 22.2995 42.5335 22.2635 43.0805C22.1995 44.0675 21.8575 45.6115 21.9355 47.5805C21.9775 48.6425 19.0255 48.1845 19.0915 47.7055C19.3885 45.5495 19.2635 42.5495 19.2015 42.2055Z" fill="#5C913B"/>
<path d="M18.2168 48.7054C17.7178 48.2994 18.2578 47.5444 19.6368 47.3034C20.7998 47.1004 21.8368 47.2715 21.9998 47.6535C22.2118 48.1465 22.0498 48.7054 22.0498 48.7054H18.2168ZM27.3338 48.7054C27.8328 48.2994 27.2928 47.5444 25.9138 47.3034C24.7508 47.1004 23.7138 47.2715 23.5508 47.6535C23.3388 48.1465 23.5008 48.7054 23.5008 48.7054H27.3338Z" fill="#292F33"/>
<path d="M17.9597 27.4714C19.1787 26.7054 20.7567 26.7054 20.7567 26.7054H24.7567C24.7567 26.7054 26.3347 26.7054 27.5537 27.4714C28.7547 28.2254 29.2097 30.4714 29.2097 30.4714L26.8367 31.1594L26.7317 36.6864H18.7817L18.6767 31.1594L16.3037 30.4714C16.3037 30.4714 16.7587 28.2254 17.9597 27.4714Z" fill="#99AAB5"/>
<path d="M24.9304 13.1955C23.8274 12.8385 21.2324 12.9355 20.5834 13.7795C18.8964 13.8115 16.9174 15.3365 16.6574 17.3485C16.4004 19.3395 16.9734 20.2635 17.1764 21.7605C17.4074 23.4565 18.3604 23.9995 19.1234 24.2265C20.2204 25.6755 21.3864 25.6135 23.3434 25.6135C27.1664 25.6135 28.9874 23.0555 29.1484 18.7115C29.2454 16.0825 27.7034 14.0925 24.9304 13.1955Z" fill="#292F33"/>
<path d="M21.1597 24.3044V26.7624C21.1597 27.6674 21.8477 29.4824 22.7977 29.4824C23.7477 29.4824 24.4357 27.6674 24.4357 26.7624V24.3044H21.1597Z" fill="#F7DECE"/>
<path d="M21.1597 26.4214C21.6577 26.9844 22.1247 27.1254 22.7967 27.1254C23.4677 27.1254 23.9387 26.9834 24.4367 26.4214V25.7554H21.1597V26.4214Z" fill="#EEC2AD"/>
<path d="M27.1166 18.8965C26.7466 18.3845 26.2736 17.9715 25.2346 17.8255C25.6236 18.0035 25.9966 18.6205 26.0456 18.9605C26.0946 19.3015 26.1426 19.5765 25.8346 19.2365C24.5996 17.8715 23.2556 18.4095 21.9226 17.5755C20.9926 16.9935 20.7096 16.3495 20.7096 16.3495C20.7096 16.3495 20.5956 17.2095 19.1846 18.0855C18.7756 18.3395 18.2876 18.9045 18.0166 19.7405C17.8216 20.3405 17.8826 20.8765 17.8826 21.7905C17.8826 24.4605 20.0836 26.7055 22.7976 26.7055C25.5116 26.7055 27.7126 24.4405 27.7126 21.7905C27.7126 20.1295 27.5386 19.4805 27.1166 18.8965Z" fill="#F7DECE"/>
<path d="M24.7134 24.7054H20.7134C20.7134 24.7054 20.7134 25.7054 22.7134 25.7054C24.7134 25.7054 24.7134 24.7054 24.7134 24.7054Z" fill="#C1694F"/>
<path d="M20.2134 21.7054C20.4895 21.7054 20.7134 21.4816 20.7134 21.2054C20.7134 20.9293 20.4895 20.7054 20.2134 20.7054C19.9372 20.7054 19.7134 20.9293 19.7134 21.2054C19.7134 21.4816 19.9372 21.7054 20.2134 21.7054Z" fill="#662113"/>
<path d="M25.2134 21.7054C25.4895 21.7054 25.7134 21.4816 25.7134 21.2054C25.7134 20.9293 25.4895 20.7054 25.2134 20.7054C24.9372 20.7054 24.7134 20.9293 24.7134 21.2054C24.7134 21.4816 24.9372 21.7054 25.2134 21.7054Z" fill="#662113"/>
<path d="M21.7134 22.7054H23.7134C23.7134 22.7054 23.7134 23.7054 22.7134 23.7054C21.7134 23.7054 21.7134 22.7054 21.7134 22.7054Z" fill="#C1694F"/>
<path d="M30.7878 39.4654C30.5168 39.5564 30.3008 39.3064 30.2018 39.1634C29.9228 38.7584 29.7798 37.8544 30.1978 36.9364C30.6208 36.0094 30.8998 34.8644 31.8878 33.1154C32.0028 32.9114 32.3818 30.3694 33.1298 28.7614C33.3318 28.3264 34.6248 28.0774 35.1388 28.2324C35.6518 28.3864 35.1338 29.2124 35.1018 29.3664C34.7578 31.0174 33.7968 33.4434 33.6518 33.7704C32.8518 35.5764 31.6868 36.1594 31.5808 37.4764C31.5258 38.1664 31.3758 38.7624 30.9808 38.7044C30.8878 39.0564 30.8868 39.4324 30.7878 39.4654ZM45.3828 39.6694C45.6398 39.7954 45.8868 39.5754 46.0028 39.4474C46.3328 39.0824 46.5938 38.2054 46.2988 37.2394C46.0018 36.2644 45.8748 35.0934 45.1248 33.2294C45.0378 33.0124 44.9958 30.4424 44.4648 28.7504C44.3218 28.2934 43.0728 27.8754 42.5428 27.9614C42.0138 28.0474 42.4188 28.9334 42.4308 29.0904C42.5548 30.7724 43.1888 33.3034 43.2898 33.6464C43.8458 35.5414 44.9238 36.2734 44.8558 37.5924C44.8198 38.2844 44.8898 38.8944 45.2888 38.8884C45.3368 39.2514 45.2888 39.6234 45.3828 39.6694Z" fill="#F7DECE"/>
<path d="M42.2257 42.2055C42.7257 39.4715 42.4887 35.7255 42.4887 35.7255H34.8447C34.8447 35.7255 34.6067 39.4715 35.1067 42.2055C35.1697 42.5495 35.2947 45.5495 34.9977 47.7055C34.9317 48.1845 37.8837 48.6425 37.8417 47.5805C37.7637 45.6115 38.1057 44.0675 38.1697 43.0805C38.2047 42.5335 38.4197 41.2055 38.5137 39.8725C38.5247 39.8545 38.8087 39.8545 38.8197 39.8725C38.9137 41.2055 39.1277 42.5335 39.1637 43.0805C39.2277 44.0675 39.5697 45.6115 39.4917 47.5805C39.4497 48.6425 42.4017 48.1845 42.3357 47.7055C42.0387 45.5495 42.1637 42.5495 42.2257 42.2055Z" fill="#4289C1"/>
<path d="M43.2107 48.7054C43.7097 48.2994 43.1697 47.5444 41.7907 47.3034C40.6277 47.1004 39.5907 47.2715 39.4277 47.6535C39.2157 48.1465 39.3777 48.7054 39.3777 48.7054H43.2107ZM34.0937 48.7054C33.5947 48.2994 34.1347 47.5444 35.5137 47.3034C36.6767 47.1004 37.7137 47.2715 37.8767 47.6535C38.0887 48.1475 37.9267 48.7064 37.9267 48.7064L34.0937 48.7054Z" fill="#292F33"/>
<path d="M43.4678 27.4714C42.2488 26.7054 40.6708 26.7054 40.6708 26.7054H36.6708C36.6708 26.7054 35.0928 26.7054 33.8738 27.4714C32.6728 28.2254 32.2178 30.4714 32.2178 30.4714L34.5908 31.1594L34.6958 36.6864H42.6458L42.7508 31.1594L45.1238 30.4714C45.1238 30.4714 44.6688 28.2254 43.4678 27.4714Z" fill="#FA743E"/>
<path d="M40.7287 13.1955C39.6257 12.8385 37.0297 12.9355 36.3817 13.7795C34.6947 13.8115 32.7157 15.3365 32.4557 17.3485C32.1987 19.3395 32.7717 20.2635 32.9747 21.7605C33.2057 23.4565 34.1587 23.9995 34.9217 24.2265C36.0187 25.6755 37.1847 25.6135 39.1417 25.6135C42.9647 25.6135 44.7857 23.0555 44.9467 18.7115C45.0437 16.0825 43.5017 14.0925 40.7287 13.1955Z" fill="#292F33"/>
<path d="M36.9526 24.3044V26.7624C36.9526 27.6674 37.6406 29.4824 38.5906 29.4824C39.5406 29.4824 40.2286 27.6674 40.2286 26.7624V24.3044H36.9526Z" fill="#F7DECE"/>
<path d="M36.9536 26.4214C37.4516 26.9844 37.9186 27.1254 38.5906 27.1254C39.2616 27.1254 39.7326 26.9834 40.2306 26.4214V25.7554H36.9536V26.4214Z" fill="#EEC2AD"/>
<path d="M42.9144 18.8965C42.5444 18.3845 42.0704 17.9715 41.0324 17.8255C41.4214 18.0035 41.7944 18.6205 41.8434 18.9605C41.8924 19.3015 41.9404 19.5765 41.6324 19.2365C40.3974 17.8715 39.0534 18.4095 37.7204 17.5755C36.7894 16.9935 36.5064 16.3495 36.5064 16.3495C36.5064 16.3495 36.3924 17.2095 34.9814 18.0855C34.5724 18.3395 34.0844 18.9045 33.8134 19.7405C33.6184 20.3405 33.6794 20.8765 33.6794 21.7905C33.6794 24.4605 35.8804 26.7055 38.5944 26.7055C41.3084 26.7055 43.5094 24.4405 43.5094 21.7905C43.5104 20.1295 43.3364 19.4805 42.9144 18.8965Z" fill="#F7DECE"/>
<path d="M40.7134 24.7054H36.7134C36.7134 24.7054 36.7134 25.7054 38.7134 25.7054C40.7134 25.7054 40.7134 24.7054 40.7134 24.7054Z" fill="#C1694F"/>
<path d="M36.2134 21.7054C36.4895 21.7054 36.7134 21.4816 36.7134 21.2054C36.7134 20.9293 36.4895 20.7054 36.2134 20.7054C35.9372 20.7054 35.7134 20.9293 35.7134 21.2054C35.7134 21.4816 35.9372 21.7054 36.2134 21.7054Z" fill="#662113"/>
<path d="M41.2134 21.7054C41.4895 21.7054 41.7134 21.4816 41.7134 21.2054C41.7134 20.9293 41.4895 20.7054 41.2134 20.7054C40.9372 20.7054 40.7134 20.9293 40.7134 21.2054C40.7134 21.4816 40.9372 21.7054 41.2134 21.7054Z" fill="#662113"/>
<path d="M37.7134 22.7054H39.7134C39.7134 22.7054 39.7134 23.7054 38.7134 23.7054C37.7134 23.7054 37.7134 22.7054 37.7134 22.7054Z" fill="#C1694F"/>
</svg>
