<svg width="51" height="51" viewBox="0 0 61 61" fill="none" xmlns="http://www.w3.org/2000/svg">
<rect width="61" height="61" rx="2" fill="#E4EDF2"/>
<path d="M29.8876 45.165C29.9376 44.562 29.5886 44.147 29.1326 44.141H28.9446C28.4886 44.147 28.1396 44.562 28.1896 45.165C28.2646 46.07 28.1726 46.565 28.1376 47.483C28.1126 48.157 28.4336 48.981 29.0386 48.974C29.6436 48.981 29.9646 48.157 29.9396 47.483C29.9046 46.565 29.8126 46.07 29.8876 45.165Z" fill="#DD2E44"/>
<path d="M30.0007 40.458C30.0017 40.19 29.5147 40.06 29.0387 40.064C28.5627 40.06 28.0757 40.19 28.0767 40.458C28.0767 40.458 28.4857 43.906 28.4077 47.149C28.4007 47.435 28.7207 47.589 29.0387 47.592C29.3567 47.589 29.6767 47.436 29.6697 47.149C29.5917 43.906 30.0007 40.458 30.0007 40.458Z" fill="#D4AB88"/>
<path d="M28.3647 45.068H29.7297V45.718H28.3647V45.068Z" fill="#DD2E44"/>
<path d="M37.2096 33.806C37.2096 33.806 40.3716 31.524 40.8076 31.497C41.0546 31.481 42.6906 31.367 43.0376 31.334C44.2966 31.209 46.8916 30.664 47.1186 30.615C47.3466 30.565 47.4406 30.646 47.9576 29.809C48.4746 28.971 47.9136 29.169 47.9136 29.169C47.9136 29.169 47.5596 29.462 47.3666 29.548C47.1736 29.634 46.8046 29.721 46.4576 29.714C45.3726 29.691 39.2826 29.433 39.2826 29.433C38.4346 29.482 37.9946 29.473 37.6676 30.106C37.0936 31.21 37.1746 33.244 37.2096 33.806Z" fill="#D4AB88"/>
<path d="M29.0225 14C29.2255 13.622 29.5605 13.015 30.8285 13.398C32.7435 13.977 31.0225 15 31.0225 15C31.0225 15 33.0225 16 33.0225 19C33.0225 22 30.6785 21.369 30.6785 24.531L30.3195 25.065C30.3195 25.065 30.9635 24.627 28.9635 26.627C24.9635 30.627 22.1815 25.353 22.5515 23.873C23.0935 21.704 22.0225 22 22.0225 20C22.0225 18 24.0225 18 24.0225 16C24.0225 14 26.0225 13 27.0225 13C28.0225 13 29.0225 14 29.0225 14Z" fill="#963B22"/>
<path d="M27.6475 21C29.0972 21 30.2725 19.6569 30.2725 18C30.2725 16.3431 29.0972 15 27.6475 15C26.1977 15 25.0225 16.3431 25.0225 18C25.0225 19.6569 26.1977 21 27.6475 21Z" fill="#D4AB88"/>
<path d="M27.5227 14C26.5957 14 25.7957 14.306 25.3647 14.755C24.2617 14.547 24.8877 16.272 24.0227 18C23.0227 20 25.0227 22 25.0227 21C25.0227 20 25.0227 17 27.0227 17H27.5227C28.9037 17 30.0227 16.329 30.0227 15.5C30.0227 14.671 28.9037 14 27.5227 14Z" fill="#963B22"/>
<path d="M31.5795 22.32C30.5995 21.986 29.8995 22.023 28.7025 22.007L28.2705 18.124C28.2095 17.575 27.7085 17.176 27.1665 17.241C26.6175 17.302 26.2225 17.796 26.2835 18.345L26.6895 22.001L24.7495 22.047L24.7715 24C24.7805 24.262 24.8575 24.588 25.0225 25C26.0225 27.5 31.0225 27.985 31.0225 25.5C31.0225 24.896 30.9745 24.44 30.8725 24.093C32.0775 24.181 34.2385 23.226 31.5795 22.32Z" fill="#D4AB88"/>
<path d="M26.0227 29C26.0227 31 26.0227 32 24.0227 35C22.0227 38 20.0227 38 19.0227 40C18.0227 42 19.0227 42 21.0227 41C23.0227 40 22.0227 45 25.0227 45C28.0227 45 27.0227 42 29.0227 42C31.0227 42 32.0227 45 34.0227 45C36.0227 45 36.6037 42.581 35.0227 41C34.0227 40 37.0227 38 38.0227 39C39.6037 40.581 41.2587 38.236 39.0227 36C38.0227 35 37.2337 33.895 39.0227 33C41.0227 32 41.5227 28 39.0227 29C35.6787 30.338 31.0227 32.161 31.0227 29V25C31.0227 25 29.6637 24.636 29.2317 22.017L29.0437 22.011C29.0437 22.011 28.4827 25.505 26.2227 22.019L26.0107 22.021C26.0107 22.021 26.8707 24.637 25.3607 25.791C25.2597 25.867 26.0227 27 26.0227 29Z" fill="#DD2E44"/>
<path d="M39.0223 31.875C37.9003 32.436 37.7923 33.08 38.1143 33.729C38.2733 33.476 38.5603 33.231 39.0223 33C40.2733 32.375 40.9373 30.576 40.6473 29.561C40.4603 30.463 39.8813 31.446 39.0223 31.875ZM34.0223 43.875C32.0223 43.875 31.0223 40.875 29.0223 40.875C27.0223 40.875 28.0223 43.875 25.0223 43.875C22.0223 43.875 23.0223 38.875 21.0223 39.875C19.9423 40.415 19.1693 40.648 18.8303 40.447C18.2193 41.973 19.1923 41.915 21.0223 41C23.0223 40 22.0223 45 25.0223 45C28.0223 45 27.0223 42 29.0223 42C31.0223 42 32.0223 45 34.0223 45C35.4433 45 36.1283 43.778 35.8503 42.504C35.6413 43.287 35.0063 43.875 34.0223 43.875ZM38.0223 37.875C37.0223 36.875 34.0223 38.875 35.0223 39.875C35.0363 39.889 35.0433 39.905 35.0563 39.919C35.6693 39.059 37.3273 38.305 38.0223 39C39.2133 40.191 40.4443 39.154 40.0253 37.615C39.7593 38.429 38.8823 38.735 38.0223 37.875Z" fill="#A0041E"/>
<path d="M48.8294 28.677C48.8294 28.677 48.4064 28.467 48.0444 28.996C47.9724 29.103 47.9124 29.168 47.9124 29.168C47.9534 29.24 47.9394 29.318 47.9174 29.385C47.7874 29.783 47.4454 30.081 46.7914 30.175C46.5194 30.214 46.3014 30.262 46.1074 30.313L46.1264 29.708L45.4764 29.687L45.4484 30.561C45.1524 30.731 45.0584 30.909 45.0144 31.042C44.9184 31.334 45.5704 31.679 45.9774 31.813C46.3454 31.934 46.6654 31.988 46.8874 31.995C47.1324 32.002 48.0234 32.22 48.0234 32.22L48.1114 31.951C48.1114 31.951 47.3914 31.616 47.1454 31.505C46.9474 31.415 47.0664 30.923 47.3694 30.87C48.1744 30.729 48.3664 30.794 48.4894 30.416L48.9374 29.041C49.0204 28.793 48.8294 28.677 48.8294 28.677Z" fill="#DD2E44"/>
<path d="M25.3655 22.241C25.2645 22.163 25.1495 22.109 25.0255 22.08C24.8585 22.04 24.6745 22.045 24.4785 22.093C24.0885 22.19 23.5145 22.299 22.9065 22.415C22.0765 22.573 20.9755 22.891 20.6775 22.891C20.3795 22.891 19.1625 22.5 18.0435 22.354C17.6735 22.306 16.4915 22.189 16.2395 22.161C15.8975 22.123 15.4835 22.081 15.1665 22.011C15.0205 21.979 14.4535 21.827 14.2235 21.786C13.7875 21.708 13.0625 21.671 13.0215 21.756C12.8455 22.124 13.7845 21.989 14.5595 22.669C15.0135 23.067 15.4755 23.05 15.9145 23.018C16.2615 22.993 17.3615 23.591 18.2405 23.859C18.8755 24.053 20.2965 24.392 20.5005 24.421C20.7045 24.45 21.7965 24.369 22.5235 24.311C23.2585 24.254 23.8945 24.204 24.4025 24.236C24.8875 24.267 25.2515 24.157 25.4855 23.91C25.7775 23.601 25.7715 23.168 25.7635 23.043C25.7395 22.704 25.5985 22.419 25.3655 22.241ZM36.5635 23.576C36.3955 23.347 35.9985 23.011 35.1515 22.776C34.4945 22.593 31.1575 22.147 30.5025 22.069C29.9945 22.008 30.3055 23.878 30.5625 24.035C30.7275 24.136 30.9275 24.145 31.2295 24.176C32.4525 24.302 34.2915 24.204 34.6215 24.171C34.7645 24.157 34.8305 24.209 34.8395 24.3C34.7765 24.59 34.5525 24.969 34.3625 25.404C34.0445 26.131 33.7065 27.118 33.5845 27.231L33.4735 27.332C33.2225 27.378 32.9245 27.506 32.6585 27.723C32.5635 27.8 32.4745 27.895 32.4065 28.087C32.3125 28.355 32.5765 28.386 32.6405 28.225C32.6675 28.158 32.7315 28.042 32.8795 28.004C32.8745 28.035 32.8645 28.061 32.8635 28.097C32.8615 28.155 32.8465 28.203 32.8365 28.255C32.6085 28.65 32.1545 28.808 32.1855 28.961C32.1925 28.994 32.2335 28.996 32.2655 29.005C32.1115 29.109 31.9915 29.181 32.0015 29.261C32.0095 29.326 32.0815 29.341 32.1795 29.332C32.1085 29.385 32.0625 29.432 32.0685 29.481C32.0945 29.69 32.6245 29.365 32.8785 29.262C33.3115 29.086 33.5645 28.902 33.8645 28.626C34.2135 28.304 34.3825 27.839 34.5335 27.581C34.6445 27.391 35.9745 25.774 36.2695 25.233C36.7045 24.435 36.7315 23.805 36.5635 23.576Z" fill="#D4AB88"/>
</svg>
