<svg width="51" height="51" viewBox="0 0 61 61" fill="none" xmlns="http://www.w3.org/2000/svg">
<rect width="61" height="61" rx="2" fill="#E4EDF2"/>
<path d="M31 21L24 13H13L27 30L38.521 25.25L31 21Z" fill="#55ACEE"/>
<path d="M38 13L31 21L36.39 28.312L37.617 26.823L49 13H38Z" fill="#3B88C3"/>
<path d="M36.2601 29.026C36.3401 28.809 36.3911 28.578 36.3911 28.333C36.3911 27.229 35.4951 26.333 34.3911 26.333H27.7241C26.6191 26.333 25.7241 27.229 25.7241 28.333C25.7241 28.578 25.7741 28.809 25.8551 29.026C22.5971 30.852 20.3911 34.333 20.3911 38.333C20.3911 44.224 25.1661 49 31.0581 49C36.9491 49 41.7251 44.224 41.7251 38.333C41.7241 34.333 39.5191 30.852 36.2601 29.026Z" fill="#FFAC33"/>
<path d="M31.0581 46.333C35.4764 46.333 39.0581 42.7513 39.0581 38.333C39.0581 33.9147 35.4764 30.333 31.0581 30.333C26.6398 30.333 23.0581 33.9147 23.0581 38.333C23.0581 42.7513 26.6398 46.333 31.0581 46.333Z" fill="#FFD983"/>
<path d="M34.2778 43.634C34.1358 43.634 33.9938 43.59 33.8718 43.503L30.9998 41.444L28.1288 43.503C27.8838 43.678 27.5558 43.678 27.3128 43.5C27.0698 43.324 26.9678 43.011 27.0578 42.726L28.1288 39.27L25.2838 37.265C25.0418 37.087 24.9418 36.773 25.0338 36.487C25.1268 36.202 25.3918 36.008 25.6928 36.006L29.2168 36.001L30.3388 32.631C30.4338 32.346 30.6998 32.154 31.0008 32.154C31.3008 32.154 31.5678 32.346 31.6628 32.631L32.7658 36.001L36.3078 36.006C36.6088 36.008 36.8748 36.202 36.9668 36.487C37.0598 36.773 36.9588 37.086 36.7168 37.265L33.8708 39.27L34.9418 42.726C35.0338 43.012 34.9298 43.324 34.6878 43.5C34.5648 43.59 34.4208 43.634 34.2778 43.634Z" fill="#FFAC33"/>
</svg>
